<svg xmlns="http://www.w3.org/2000/svg" viewBox="0 0 120 120">
  <defs>
    <linearGradient id="fondo" x1="0" y1="0" x2="0.5" y2="1">
      <stop offset="0" stop-color="#FFFDF8" />
      <stop offset="1" stop-color="#F3E8D6" />
    </linearGradient>
    <linearGradient id="oro" x1="0" y1="0" x2="0" y2="1">
      <stop offset="0" stop-color="#F4E2AE" />
      <stop offset="0.45" stop-color="#C9A227" />
      <stop offset="1" stop-color="#96700F" />
    </linearGradient>
  </defs>
  <rect width="120" height="120" rx="29" fill="url(#fondo)" stroke="#C9A227" stroke-width="3" />
  <g transform="translate(24 26) scale(0.63)" fill="url(#oro)">
    <path d="M10 24 L22 60 H78 L90 24 L72 41 L50 13 L28 41 Z" />
    <circle cx="10" cy="20" r="4.6" />
    <circle cx="90" cy="20" r="4.6" />
    <circle cx="50" cy="9" r="4.2" />
    <rect x="47.2" y="-16" width="5.6" height="18" rx="2.4" />
    <rect x="41.5" y="-10.5" width="17" height="5.2" rx="2.4" />
    <rect x="12" y="64" width="76" height="14" rx="4.5" />
  </g>
  <g transform="translate(24 26) scale(0.63)" fill="#FFF8E6" opacity="0.9">
    <circle cx="30" cy="71" r="2.5" />
    <circle cx="50" cy="71" r="2.5" />
    <circle cx="70" cy="71" r="2.5" />
  </g>
</svg>
